<svg xmlns="http://www.w3.org/2000/svg" width="128" height="128" viewBox="0 0 128 128">
  <rect width="128" height="128" rx="28" fill="#0B1220"/>
  <path d="M82 32c-7 4-12 12-12 22 0 14 11 25 25 25 7 0 13-3 18-7-4 15-18 26-35 26-20 0-36-16-36-36 0-17 11-31 26-35Z" fill="#93C5FD" opacity="0.95"/>
  <g fill="#FDE68A" opacity="0.9">
    <circle cx="32" cy="42" r="3"/>
    <circle cx="46" cy="30" r="2.5"/>
    <circle cx="28" cy="66" r="2.5"/>
    <circle cx="50" cy="74" r="2.8"/>
    <circle cx="98" cy="38" r="2.4"/>
  </g>
  <path d="M24 96c10-8 24-12 40-12s30 4 40 12" fill="none" stroke="#A78BFA" stroke-width="6" stroke-linecap="round" opacity="0.9"/>
</svg>
